<svg width="29" height="29" viewBox="0 0 29 29" fill="none" xmlns="http://www.w3.org/2000/svg">
<path fill-rule="evenodd" clip-rule="evenodd" d="M14.5001 0.000246048C6.49298 0.000246048 0 6.65613 0 14.8672C0 21.436 4.15473 27.0088 9.91607 28.9747C10.6407 29.1123 10.9068 28.6522 10.9068 28.2595C10.9068 27.905 10.8933 26.7338 10.8871 25.4915C6.85315 26.3909 6.00194 23.7374 6.00194 23.7374C5.34234 22.0189 4.39196 21.562 4.39196 21.562C3.07637 20.6393 4.49113 20.6582 4.49113 20.6582C5.94719 20.7629 6.71388 22.1903 6.71388 22.1903C8.00715 24.4632 10.106 23.8061 10.9334 23.4262C11.0636 22.4655 11.4394 21.8092 11.854 21.4382C8.63337 21.0622 5.24773 19.7874 5.24773 14.0907C5.24773 12.4676 5.81417 11.1413 6.74173 10.1002C6.59118 9.72544 6.09486 8.21356 6.88221 6.16571C6.88221 6.16571 8.09983 5.76613 10.8708 7.68966C12.0274 7.36025 13.2678 7.19505 14.5001 7.18939C15.7324 7.19505 16.9738 7.36025 18.1326 7.68966C20.9002 5.76613 22.1161 6.16571 22.1161 6.16571C22.9054 8.21356 22.4088 9.72544 22.2583 10.1002C23.188 11.1413 23.7506 12.4676 23.7506 14.0907C23.7506 19.801 20.3585 21.0583 17.1296 21.4264C17.6497 21.8877 18.1131 22.7925 18.1131 24.1796C18.1131 26.1686 18.0963 27.7696 18.0963 28.2595C18.0963 28.6551 18.3573 29.1187 19.0923 28.9727C24.8506 27.0046 29 21.4337 29 14.8672C29 6.65613 22.508 0.000246048 14.5001 0.000246048Z" fill="white"/>
</svg>
