<svg width="26" height="22" viewBox="0 0 26 22" fill="none" xmlns="http://www.w3.org/2000/svg">
<path d="M25.8737 2.67297C25.7064 2.49131 25.4397 2.44621 25.2234 2.56297C24.9611 2.68486 24.6892 2.78421 24.4105 2.85997C24.8238 2.33725 25.1363 1.74017 25.3318 1.09999C25.3852 0.878144 25.298 0.645878 25.1126 0.516394C24.9272 0.386909 24.6823 0.387151 24.4972 0.517C23.6335 1.00178 22.7118 1.3715 21.755 1.61698C20.7271 0.579148 19.3355 -0.00239303 17.8855 7.40175e-06C16.7287 0.0258212 15.6022 0.380225 14.6339 1.02299C12.5745 2.19998 12.2168 4.91694 12.3686 6.59991C8.55073 6.27315 5.02862 4.38267 2.61365 1.36399C2.51486 1.20977 2.35013 1.11191 2.16926 1.09999C1.98854 1.11237 1.82586 1.21555 1.73571 1.37499C0.619142 3.33725 0.711884 5.77581 1.97416 7.6449C1.81158 7.5349 1.63816 7.4029 1.46474 7.2599C1.30306 7.09723 1.05843 7.05446 0.852433 7.15284C0.646433 7.25122 0.522986 7.46978 0.543441 7.6999C0.576316 9.74685 1.58675 11.6501 3.25314 12.8038L2.83043 12.6828C2.62942 12.6193 2.41038 12.6797 2.26866 12.8377C2.12693 12.9957 2.08818 13.2227 2.16926 13.4198C3.01993 15.3697 4.68619 16.8307 6.71072 17.4018C4.86508 18.4838 2.7269 18.9386 0.608474 18.6997C0.352374 18.6676 0.109477 18.8232 0.0278752 19.0717C-0.0537268 19.3201 0.048601 19.5925 0.272471 19.7227C2.82108 21.2314 5.72213 22.0177 8.67254 21.9997C12.8395 21.9652 16.7896 20.1091 19.5113 16.9068C22.2227 13.9576 23.6488 10.0242 23.4675 5.99492C24.4334 5.24594 25.2656 4.33441 25.9279 3.29996C26.0411 3.10009 26.0195 2.84979 25.8737 2.67297Z" fill="#1CA1F1"/>
</svg>
