<svg width="19" height="14" viewBox="0 0 19 14" fill="none" xmlns="http://www.w3.org/2000/svg">
<path d="M16.0843 1.16052C14.8733 0.623368 13.5747 0.227615 12.2169 0.000950826C12.1922 -0.00342372 12.1675 0.00750851 12.1548 0.0293735C11.9877 0.316529 11.8027 0.691146 11.6732 0.985594C10.2128 0.774239 8.75994 0.774239 7.3295 0.985594C7.19993 0.684601 7.00822 0.316529 6.84046 0.0293735C6.82772 0.00823803 6.80302 -0.0026942 6.77829 0.000950826C5.42126 0.226891 4.12265 0.622643 2.91091 1.16052C2.90042 1.1649 2.89143 1.17219 2.88546 1.18166C0.422268 4.73909 -0.252502 8.20908 0.0785176 11.636C0.0800154 11.6528 0.0897511 11.6688 0.103232 11.679C1.72837 12.8328 3.3026 13.5332 4.8476 13.9974C4.87232 14.0047 4.89852 13.996 4.91426 13.9763C5.27973 13.4938 5.60551 12.9851 5.88484 12.4501C5.90132 12.4188 5.88558 12.3816 5.85189 12.3692C5.33515 12.1797 4.8431 11.9487 4.36979 11.6863C4.33235 11.6652 4.32935 11.6134 4.36379 11.5887C4.46339 11.5165 4.56302 11.4414 4.65813 11.3656C4.67534 11.3518 4.69932 11.3489 4.71955 11.3576C7.82902 12.73 11.1954 12.73 14.2682 11.3576C14.2884 11.3481 14.3124 11.3511 14.3303 11.3649C14.4255 11.4407 14.5251 11.5165 14.6254 11.5887C14.6599 11.6134 14.6576 11.6652 14.6202 11.6863C14.1469 11.9538 13.6548 12.1797 13.1373 12.3685C13.1036 12.3809 13.0886 12.4188 13.1051 12.4501C13.3905 12.9844 13.7162 13.4931 14.075 13.9756C14.0899 13.996 14.1169 14.0047 14.1416 13.9974C15.6941 13.5332 17.2683 12.8328 18.8935 11.679C18.9077 11.6688 18.9167 11.6535 18.9182 11.6368C19.3144 7.67482 18.2546 4.23329 16.109 1.18238C16.1038 1.17219 16.0948 1.1649 16.0843 1.16052ZM6.34918 9.54938C5.41302 9.54938 4.64165 8.71853 4.64165 7.69815C4.64165 6.67778 5.39806 5.84693 6.34918 5.84693C7.30777 5.84693 8.07168 6.68508 8.0567 7.69815C8.0567 8.71853 7.30028 9.54938 6.34918 9.54938ZM12.6625 9.54938C11.7264 9.54938 10.955 8.71853 10.955 7.69815C10.955 6.67778 11.7114 5.84693 12.6625 5.84693C13.6211 5.84693 14.385 6.68508 14.37 7.69815C14.37 8.71853 13.6211 9.54938 12.6625 9.54938Z" fill="white"/>
</svg>
