<svg width="25" height="24" viewBox="0 0 25 24" fill="none" xmlns="http://www.w3.org/2000/svg">
<path d="M22.7035 0H1.35391C0.622846 0 0.0292969 0.592363 0.0292969 1.32462V22.6742C0.0292969 23.4065 0.622846 23.9996 1.35391 23.9996H12.8479V14.7055H9.7205V11.083H12.8479V8.41164C12.8479 5.3123 14.7404 3.62373 17.5058 3.62373C18.8316 3.62373 19.9685 3.72292 20.3001 3.76599V7.00561L18.3819 7.00641C16.8783 7.00641 16.5882 7.72127 16.5882 8.76966V11.0818H20.1756L19.7065 14.704H16.5878V23.9984H22.7031C23.435 23.9984 24.0289 23.4045 24.0289 22.6742V1.32383C24.0285 0.592363 23.4354 0 22.7035 0Z" fill="#3B5998"/>
</svg>
