<svg width="25" height="24" viewBox="0 0 25 24" fill="none" xmlns="http://www.w3.org/2000/svg">
<g clip-path="url(#clip0_111_531)">
<path d="M6.28766 14.5034L5.45225 17.6221L2.39886 17.6867C1.48634 15.9942 0.96875 14.0577 0.96875 11.9999C0.96875 10.01 1.45269 8.1335 2.3105 6.4812H2.31116L5.02953 6.97958L6.22034 9.68164C5.97111 10.4082 5.83527 11.1882 5.83527 11.9999C5.83536 12.8808 5.99492 13.7247 6.28766 14.5034Z" fill="#FBBB00"/>
<path d="M24.7589 9.7583C24.8967 10.4842 24.9686 11.2339 24.9686 12.0001C24.9686 12.8592 24.8783 13.6972 24.7062 14.5056C24.122 17.2563 22.5957 19.6583 20.4812 21.3581L20.4805 21.3574L17.0566 21.1827L16.572 18.1576C17.975 17.3348 19.0715 16.0471 19.6491 14.5056H13.2324V9.7583H19.7427H24.7589Z" fill="#518EF8"/>
<path d="M20.4802 21.3575L20.4808 21.3581C18.4244 23.0111 15.812 24.0001 12.9683 24.0001C8.39844 24.0001 4.42527 21.4459 2.39844 17.6869L6.28723 14.5037C7.30063 17.2083 9.90964 19.1336 12.9683 19.1336C14.283 19.1336 15.5147 18.7781 16.5716 18.1577L20.4802 21.3575Z" fill="#28B446"/>
<path d="M20.6284 2.76262L16.7409 5.94525C15.647 5.26153 14.354 4.86656 12.9688 4.86656C9.84087 4.86656 7.18306 6.88017 6.22044 9.68175L2.3112 6.48131H2.31055C4.3077 2.63077 8.33098 0 12.9688 0C15.8804 0 18.5501 1.03716 20.6284 2.76262Z" fill="#F14336"/>
</g>
<defs>
<clipPath id="clip0_111_531">
<rect width="24" height="24" fill="white" transform="translate(0.96875)"/>
</clipPath>
</defs>
</svg>
