<svg width="106" height="32" viewBox="0 0 106 32" fill="none" xmlns="http://www.w3.org/2000/svg">
<path d="M0.0741659 9.95192H5.04373V13.3639C5.56294 12.3254 6.37885 11.4354 7.56561 10.6936C8.75237 9.95192 10.1616 9.58105 11.9418 9.58105C12.9802 9.58105 14.0186 9.7294 14.9087 10.1003C15.7988 10.397 16.6147 10.9162 17.2822 11.5837C17.9498 12.2513 18.469 13.1413 18.7657 14.1798C19.1365 15.2182 19.2849 16.5533 19.2849 17.9626V31.462H14.3153V18.3334C14.3153 16.7016 13.9445 15.5149 13.2769 14.7731C12.6093 14.0314 11.4968 13.6606 10.0133 13.6606C8.60403 13.6606 7.41726 14.1056 6.45302 14.9215C5.48877 15.8116 4.96957 17.0725 4.96957 18.7785V31.462H0V9.95192H0.0741659Z" fill="white"/>
<path d="M32.1158 31.8329C30.5581 31.8329 29.0747 31.6104 27.7396 31.0912C26.4045 30.572 25.2919 29.8302 24.3276 28.9402C23.3634 27.9759 22.6217 26.8633 22.1025 25.5282C21.5832 24.1931 21.2866 22.6355 21.2866 21.0037V20.707C21.2866 19.0752 21.5832 17.5176 22.1025 16.1825C22.6217 14.8474 23.3634 13.6606 24.3276 12.6964C25.2919 11.7321 26.4045 10.9904 27.7396 10.4712C29.0747 9.95197 30.484 9.65527 31.9674 9.65527C33.3025 9.65527 34.5635 9.87779 35.8244 10.2487C37.0112 10.6937 38.1237 11.2871 39.0138 12.1771C39.9781 13.0672 40.7198 14.1798 41.239 15.5149C41.8324 16.85 42.0549 18.4818 42.0549 20.4103V21.8196H26.3303C26.4045 23.8964 26.9237 25.454 27.9621 26.5666C28.9263 27.6792 30.4098 28.1984 32.2641 28.1984C33.7476 28.1984 34.9343 27.9017 35.6761 27.3084C36.492 26.715 36.937 25.8991 37.1595 24.8607H41.9807C41.6099 27.16 40.5714 28.866 38.8655 30.0528C37.1595 31.2395 34.8601 31.8329 32.1158 31.8329ZM37.1595 18.4818C37.0112 16.6275 36.492 15.2924 35.6019 14.4023C34.7118 13.5864 33.525 13.1414 31.9674 13.1414C30.484 13.1414 29.223 13.5864 28.2588 14.5507C27.2945 15.5149 26.7012 16.7758 26.4786 18.4818H37.1595Z" fill="white"/>
<path d="M51.3277 31.8326C50.2893 31.8326 49.2509 31.6842 48.3608 31.3876C47.4707 31.0909 46.6549 30.5717 45.9873 29.9041C45.3197 29.2365 44.8005 28.4206 44.4297 27.3822C44.0588 26.3438 43.9105 25.1571 43.9105 23.7478V9.95166H48.88V23.1544C48.88 24.7862 49.2509 25.973 49.9184 26.7147C50.586 27.4564 51.6986 27.8273 53.1079 27.8273C53.7754 27.8273 54.3688 27.7531 55.0364 27.5306C55.6297 27.3081 56.1489 27.0114 56.6682 26.5663C57.1874 26.1213 57.4841 25.6021 57.7807 24.9345C58.0774 24.267 58.2258 23.5253 58.2258 22.7094V9.95166H63.1954V31.3876H58.1516V28.0498C57.6324 29.0882 56.7423 29.9783 55.6297 30.72C54.5172 31.4617 53.1079 31.8326 51.3277 31.8326Z" fill="white"/>
<path d="M66.6812 9.95192H71.6508V13.9572C72.3184 12.6221 73.2084 11.5095 74.321 10.7678C75.4336 10.0261 76.8429 9.65523 78.623 9.58105V14.2539C77.5104 14.2539 76.5462 14.3281 75.6561 14.5506C74.7661 14.7731 74.0985 15.0698 73.4309 15.589C72.8376 16.0341 72.3925 16.6275 72.0217 17.4434C71.725 18.1851 71.5766 19.1493 71.5766 20.2619V31.3878H66.6071V9.95192H66.6812Z" fill="white"/>
<path d="M85.892 31.8328C84.9277 31.8328 83.9635 31.6845 83.0734 31.4619C82.1833 31.2394 81.4416 30.8686 80.774 30.3493C80.1065 29.8301 79.5873 29.1626 79.2164 28.3467C78.8456 27.5308 78.623 26.5665 78.623 25.454C78.623 24.193 78.9197 23.1546 79.5131 22.2645C80.1065 21.3745 80.8482 20.7069 81.8866 20.1877C82.9251 19.6685 84.0377 19.2976 85.3728 19.0009C86.7079 18.7784 88.1171 18.6301 89.6748 18.6301H92.345V17.5175C92.345 16.034 92.0483 14.9956 91.5291 14.2539C90.9357 13.5122 89.9715 13.2155 88.488 13.2155C87.1529 13.2155 86.1886 13.5122 85.5211 14.1055C84.8535 14.6989 84.4827 15.5148 84.3343 16.6274H79.5131C79.5873 15.3665 79.9582 14.3281 80.4774 13.438C80.9966 12.5479 81.6641 11.8062 82.48 11.2128C83.2959 10.6194 84.2602 10.2486 85.2986 9.95187C86.337 9.65518 87.5238 9.50684 88.7105 9.50684C89.8973 9.50684 91.0099 9.65518 92.0483 9.8777C93.0867 10.1744 93.9768 10.5453 94.7927 11.2128C95.6086 11.8804 96.202 12.6221 96.647 13.6605C97.092 14.6248 97.3145 15.8857 97.3145 17.3691V31.4619H92.4192V28.8659C91.6774 29.8301 90.8615 30.4977 89.8231 31.0911C88.8589 31.5361 87.5238 31.8328 85.892 31.8328ZM87.0787 28.2725C88.6364 28.2725 89.8973 27.9017 90.8615 27.1599C91.8258 26.4182 92.345 25.3056 92.345 23.9705V21.8195H89.8231C87.9688 21.8195 86.4112 22.042 85.2986 22.5612C84.186 23.0804 83.5926 23.9705 83.5926 25.3056C83.5926 26.1957 83.8893 26.9374 84.4085 27.4566C85.0019 27.9758 85.892 28.2725 87.0787 28.2725Z" fill="white"/>
<path d="M100.875 0.0126953H105.844V31.3877H100.875V0.0126953Z" fill="white"/>
</svg>
