<svg width="57" height="39" viewBox="0 0 57 39" fill="none" xmlns="http://www.w3.org/2000/svg">
<path d="M25.8218 32.0349C25.8218 35.2993 26.209 36.2398 28.5328 37.3464V37.4571H17.4119V37.4017C19.6803 36.2952 20.0677 35.3546 20.0677 32.0902V8.07789C20.0677 4.5369 18.6291 0.82992 14.4242 0.82992C11.3258 0.82992 9.94262 3.87296 9.94262 7.63526V13.1681H16.084L15.8074 14.4406H9.94262V32.0902C9.94262 35.3546 11.1598 36.4058 13.8156 37.4017V37.5124H1.47747V37.4017C3.80125 36.2952 4.18849 35.3546 4.18849 32.0902V14.4406H0.924194V14.0533L4.18849 12.9468V10.5123C4.18849 3.1537 8.83606 0 14.3689 0C17.5779 0 19.9017 1.71517 20.8976 3.09837C22.7234 2.54509 24.3279 1.54918 25.7664 0.110654H25.8771V32.0349H25.8218Z" fill="white"/>
<path d="M31.0237 25.34C31.0237 17.9261 36.4458 12.6699 43.6938 12.6699C50.9418 12.6699 56.3639 17.9261 56.3639 25.34C56.3639 32.754 50.9971 38.0101 43.6938 38.0101C36.4458 37.9548 31.0237 32.754 31.0237 25.34ZM50.0012 25.34C50.0012 18.424 47.7881 13.6105 43.6938 13.6105C39.5995 13.6105 37.3864 18.424 37.3864 25.34C37.3864 32.2007 39.5995 37.0142 43.6938 37.0142C47.7881 37.0142 50.0012 32.2007 50.0012 25.34Z" fill="white"/>
</svg>
