<svg width="88" height="28" viewBox="0 0 88 28" fill="none" xmlns="http://www.w3.org/2000/svg">
<path d="M9.80649 6.25277H14.0026V11.2439H9.80649V19.9894C9.80649 21.8004 10.6458 22.4187 12.28 22.4187C12.9426 22.4187 13.7376 22.3304 14.0026 22.242V26.924C13.4725 27.1448 12.4567 27.454 10.8224 27.454C6.75883 27.454 4.19702 25.0247 4.19702 21.0053V11.2881H0.442627V6.25277H1.50265C3.71111 6.25277 4.72702 4.79518 4.72702 2.94008V0.0249023H9.80649V6.25277V6.25277Z" fill="white"/>
<path d="M36.3956 16.6768C36.3956 23.0814 31.6694 27.7633 25.4416 27.7633C19.2137 27.7633 14.4877 23.0814 14.4877 16.6768C14.4877 10.2281 19.2137 5.59033 25.4416 5.59033C31.6694 5.59033 36.3956 10.2281 36.3956 16.6768ZM30.7419 16.6768C30.7419 12.7458 28.1801 10.714 25.4416 10.714C22.7031 10.714 20.1413 12.7016 20.1413 16.6768C20.1413 20.5637 22.7031 22.5955 25.4416 22.5955C28.1801 22.5955 30.7419 20.6079 30.7419 16.6768Z" fill="white"/>
<path d="M55.521 6.25269L60.0262 19.7243L63.8689 6.25269H69.4785L62.9415 27.1448H57.2878L52.4291 12.8781L47.6147 27.1448H41.8727L35.2031 6.25269H41.1218L44.9646 19.6801L49.5139 6.25269H55.521V6.25269Z" fill="white"/>
<path d="M75.3536 15.0867L80.4773 14.3358C81.6698 14.1592 82.0674 13.585 82.0674 12.8341C82.0674 11.3323 80.919 10.1398 78.5339 10.1398C76.0604 10.1398 74.7353 11.7299 74.5586 13.5408L69.5675 12.4807C69.9208 9.21221 72.9244 5.59033 78.5339 5.59033C85.1593 5.59033 87.6327 9.34472 87.6327 13.5408V23.7881C87.6327 24.8923 87.7652 26.3941 87.8977 27.1008H82.73C82.5974 26.5707 82.5091 25.4223 82.5091 24.5831C81.449 26.2174 79.4614 27.675 76.3695 27.675C71.9084 27.675 69.2141 24.6715 69.2141 21.4029C69.1258 17.6927 71.8642 15.6168 75.3536 15.0867ZM82.0674 18.6644V17.7369L77.3412 18.4436C75.8836 18.6644 74.7353 19.4595 74.7353 21.0937C74.7353 22.3305 75.6187 23.5231 77.4296 23.5231C79.859 23.5231 82.0674 22.3747 82.0674 18.6644Z" fill="white"/>
</svg>
