<svg width="121" height="21" viewBox="0 0 121 21" fill="none" xmlns="http://www.w3.org/2000/svg">
<path d="M23.9228 15.3503V17.9262C23.9228 19.1664 24.066 19.5003 24.2568 19.7866V19.9297H17.7215C17.6261 19.7866 17.5785 19.4526 17.5785 18.6417V17.0198C17.5785 14.4916 16.6721 13.5853 13.9054 13.5853H7.27481V19.9774H0.978149V0.276367H15.5273C22.8258 0.276367 23.7798 3.2339 23.7798 5.57131V5.80982C23.7798 8.43344 21.824 9.95991 19.4866 10.4369C22.1102 10.9617 23.9228 12.3927 23.9228 15.3503ZM14.6687 8.67195C16.7198 8.67195 17.1969 7.81331 17.1969 6.81157V6.76386C17.1969 5.80982 16.6721 4.95118 14.6687 4.95118H7.27481V8.67195H14.6687Z" fill="white"/>
<path d="M32.7009 19.9292V0.275879H38.9976V19.8815H32.7009V19.9292Z" fill="white"/>
<path d="M47.5352 10.341V9.7209C47.5352 5.4754 50.0634 0.0373535 59.6038 0.0373535H60.5102C69.9076 0.0373535 72.3403 4.13974 72.3403 7.14498V7.24038H65.7097C65.5189 6.76336 64.7557 4.90298 60.0332 4.90298C55.3584 4.90298 54.0227 7.43119 54.0227 9.91171V10.2456C54.0227 12.6307 55.4538 15.4452 60.1286 15.4452C64.5649 15.4452 65.5189 13.394 65.662 12.7738H60.1762V9.19617H72.4834V20.0246H67.8086C67.7132 19.3567 67.3316 18.0688 66.9977 17.4009C66.4252 18.0211 64.2787 20.3108 59.4131 20.3108H58.9837C50.1588 20.2154 47.5352 14.7773 47.5352 10.341Z" fill="white"/>
<path d="M81.594 19.9292V0.275879H87.8907V19.8815H81.594V19.9292Z" fill="white"/>
<path d="M108.116 0.275879C118.611 0.275879 120.948 5.28461 120.948 9.4824V10.2933C120.948 14.6342 118.992 19.9292 108.116 19.9292H97.288V0.275879H108.116ZM107.544 15.2067C113.745 15.2067 114.365 12.2491 114.365 10.1025V9.95942C114.365 7.90823 113.745 4.99839 107.544 4.99839H103.585V15.2067H107.544Z" fill="white"/>
</svg>
