<svg width="419" height="314" viewBox="0 0 419 314" fill="none" xmlns="http://www.w3.org/2000/svg">
<rect width="419" height="314" rx="8" fill="#060203"/>
<rect opacity="0.2" x="48.2" y="116" width="352" height="1" fill="#DFE1ED" fill-opacity="0.5"/>
<rect opacity="0.2" x="48.2" y="152" width="352" height="1" fill="#DFE1ED" fill-opacity="0.5"/>
<rect opacity="0.2" x="48.2" y="188" width="352" height="1" fill="#DFE1ED" fill-opacity="0.5"/>
<rect opacity="0.2" x="224" y="260" width="143" height="1.00001" transform="rotate(-90 224 260)" fill="#DFE1ED" fill-opacity="0.5"/>
<rect opacity="0.2" x="48.2" y="224" width="352" height="1" fill="#DFE1ED" fill-opacity="0.5"/>
<rect opacity="0.2" x="48.2" y="260" width="352" height="1" fill="#DFE1ED" fill-opacity="0.5"/>
<path d="M19.255 112.04C18.6118 112.923 18.391 113.48 18.391 114.277C18.391 115.65 19.4758 116.715 20.8582 116.715C22.231 116.715 23.2966 115.688 23.2966 114.277C23.2966 112.933 22.3462 111.886 20.9158 111.886C20.599 111.886 20.3014 111.954 19.975 112.117L21.7798 109.726H20.9734L19.255 112.04ZM19.0918 114.286C19.0918 113.24 19.8118 112.491 20.8582 112.491C21.8758 112.491 22.6054 113.24 22.6054 114.286C22.6054 115.333 21.8758 116.091 20.8582 116.091C19.8118 116.091 19.0918 115.333 19.0918 114.286ZM24.7418 113.163C24.7418 115.304 25.769 116.725 27.497 116.725C29.2154 116.725 30.2426 115.304 30.2426 113.163C30.2426 111.032 29.1962 109.592 27.497 109.592C25.7882 109.592 24.7418 111.032 24.7418 113.163ZM25.4234 113.163C25.4234 111.368 26.1818 110.226 27.497 110.226C28.8122 110.226 29.5706 111.368 29.5706 113.163C29.5706 114.949 28.8122 116.101 27.497 116.101C26.1818 116.101 25.4234 114.949 25.4234 113.163ZM31.7749 113.163C31.7749 115.304 32.8021 116.725 34.5301 116.725C36.2485 116.725 37.2757 115.304 37.2757 113.163C37.2757 111.032 36.2293 109.592 34.5301 109.592C32.8213 109.592 31.7749 111.032 31.7749 113.163ZM32.4565 113.163C32.4565 111.368 33.2149 110.226 34.5301 110.226C35.8453 110.226 36.6037 111.368 36.6037 113.163C36.6037 114.949 35.8453 116.101 34.5301 116.101C33.2149 116.101 32.4565 114.949 32.4565 113.163Z" fill="#B7BAC7"/>
<path d="M29.9749 257.163C29.9749 259.304 31.0021 260.725 32.7301 260.725C34.4485 260.725 35.4757 259.304 35.4757 257.163C35.4757 255.032 34.4293 253.592 32.7301 253.592C31.0213 253.592 29.9749 255.032 29.9749 257.163ZM30.6565 257.163C30.6565 255.368 31.4149 254.226 32.7301 254.226C34.0453 254.226 34.8037 255.368 34.8037 257.163C34.8037 258.949 34.0453 260.101 32.7301 260.101C31.4149 260.101 30.6565 258.949 30.6565 257.163Z" fill="#B7BAC7"/>
<path d="M21.865 218.35V224.6H22.5274V217.726H20.4634V218.35H21.865ZM24.3417 221.163C24.3417 223.304 25.3689 224.725 27.0969 224.725C28.8153 224.725 29.8425 223.304 29.8425 221.163C29.8425 219.032 28.7961 217.592 27.0969 217.592C25.3881 217.592 24.3417 219.032 24.3417 221.163ZM25.0233 221.163C25.0233 219.368 25.7817 218.226 27.0969 218.226C28.4121 218.226 29.1705 219.368 29.1705 221.163C29.1705 222.949 28.4121 224.101 27.0969 224.101C25.7817 224.101 25.0233 222.949 25.0233 221.163ZM31.3748 221.163C31.3748 223.304 32.402 224.725 34.13 224.725C35.8484 224.725 36.8756 223.304 36.8756 221.163C36.8756 219.032 35.8292 217.592 34.13 217.592C32.4212 217.592 31.3748 219.032 31.3748 221.163ZM32.0564 221.163C32.0564 219.368 32.8148 218.226 34.13 218.226C35.4452 218.226 36.2036 219.368 36.2036 221.163C36.2036 222.949 35.4452 224.101 34.13 224.101C32.8148 224.101 32.0564 222.949 32.0564 221.163Z" fill="#B7BAC7"/>
<path d="M23.3064 188.6V187.957H19.8408L21.444 186.555C22.8168 185.355 23.268 184.693 23.268 183.694C23.268 182.437 22.404 181.602 21.108 181.602C19.7544 181.602 18.8424 182.552 18.804 183.992H19.4952C19.524 182.926 20.148 182.235 21.0984 182.235C22.0104 182.235 22.5672 182.802 22.5672 183.733C22.5672 184.549 22.2408 185.029 20.9736 186.133L18.7752 188.053V188.6H23.3064ZM24.7418 185.163C24.7418 187.304 25.769 188.725 27.497 188.725C29.2154 188.725 30.2426 187.304 30.2426 185.163C30.2426 183.032 29.1962 181.592 27.497 181.592C25.7882 181.592 24.7418 183.032 24.7418 185.163ZM25.4234 185.163C25.4234 183.368 26.1818 182.226 27.497 182.226C28.8122 182.226 29.5706 183.368 29.5706 185.163C29.5706 186.949 28.8122 188.101 27.497 188.101C26.1818 188.101 25.4234 186.949 25.4234 185.163ZM31.7749 185.163C31.7749 187.304 32.8021 188.725 34.5301 188.725C36.2485 188.725 37.2757 187.304 37.2757 185.163C37.2757 183.032 36.2293 181.592 34.5301 181.592C32.8213 181.592 31.7749 183.032 31.7749 185.163ZM32.4565 185.163C32.4565 183.368 33.2149 182.226 34.5301 182.226C35.8453 182.226 36.6037 183.368 36.6037 185.163C36.6037 186.949 35.8453 188.101 34.5301 188.101C33.2149 188.101 32.4565 186.949 32.4565 185.163Z" fill="#B7BAC7"/>
<path d="M23.387 151.141V150.526H22.5806V145.726H21.659L18.299 150.526V151.141H21.9086V152.6H22.5806V151.141H23.387ZM19.0478 150.526L21.9086 146.437V150.526H19.0478ZM24.9417 149.163C24.9417 151.304 25.9689 152.725 27.6969 152.725C29.4153 152.725 30.4425 151.304 30.4425 149.163C30.4425 147.032 29.3961 145.592 27.6969 145.592C25.9881 145.592 24.9417 147.032 24.9417 149.163ZM25.6233 149.163C25.6233 147.368 26.3817 146.226 27.6969 146.226C29.0121 146.226 29.7705 147.368 29.7705 149.163C29.7705 150.949 29.0121 152.101 27.6969 152.101C26.3817 152.101 25.6233 150.949 25.6233 149.163ZM31.9749 149.163C31.9749 151.304 33.0021 152.725 34.7301 152.725C36.4485 152.725 37.4757 151.304 37.4757 149.163C37.4757 147.032 36.4293 145.592 34.7301 145.592C33.0213 145.592 31.9749 147.032 31.9749 149.163ZM32.6565 149.163C32.6565 147.368 33.4149 146.226 34.7301 146.226C36.0453 146.226 36.8037 147.368 36.8037 149.163C36.8037 150.949 36.0453 152.101 34.7301 152.101C33.4149 152.101 32.6565 150.949 32.6565 149.163Z" fill="#B7BAC7"/>
<path d="M49 251L66.8042 221.866C68.5144 219.068 72.3648 218.549 74.7549 220.795V220.795C76.6912 222.614 79.6913 222.669 81.6933 220.923L83.2299 219.582C85.0596 217.985 87.6307 217.551 89.8832 218.458V218.458C92.4888 219.508 95.4739 218.751 97.2651 216.587L99.8137 213.508C101.331 211.675 103.777 210.896 106.075 211.512V211.512C108.623 212.197 111.321 211.16 112.756 208.946L114.494 206.262C116.326 203.434 120.465 203.434 122.297 206.262L122.825 207.078C124.476 209.626 128.238 209.524 129.748 206.89V206.89C131.526 203.787 136.157 204.337 137.16 207.769L142.225 225.106C142.429 225.805 142.741 226.467 143.148 227.069L147.357 233.283C149.115 235.878 152.679 236.489 155.201 234.627L155.863 234.139C157.49 232.938 159.723 232.985 161.298 234.253V234.253C163.817 236.282 167.589 235.033 168.399 231.902L174.216 209.431C174.543 208.169 175.216 207.023 176.159 206.123L180.039 202.417C180.674 201.811 181.417 201.33 182.23 200.998L188.104 198.603C189.834 197.897 191.211 196.529 191.927 194.803L195.499 186.189C196.958 182.672 201.718 182.137 203.921 185.242V185.242C205.536 187.518 208.735 187.962 210.908 186.212L211.653 185.612C213.611 184.034 216.368 183.915 218.456 185.316L219.723 186.166C221.651 187.46 224.208 187.299 225.957 185.772V185.772C228.513 183.543 232.509 184.402 233.978 187.458V187.458C235.937 191.534 241.83 191.444 243.559 187.266L244.345 185.365C245.648 182.219 249.769 181.475 252.089 183.967V183.967C253.809 185.814 256.685 185.963 258.586 184.303L260.956 182.236C262.359 181.012 264.305 180.624 266.07 181.216V181.216C268.901 182.166 271.954 180.562 272.776 177.691L277.469 161.314C278.311 158.376 281.963 157.37 284.19 159.463V159.463C285.906 161.076 288.643 160.888 290.145 159.073V159.073C292.313 156.454 296.566 157.381 297.388 160.68L300.872 174.657C301.867 178.65 307.119 179.582 309.427 176.175L309.556 175.983C310.698 174.298 312.835 173.6 314.752 174.285V174.285C317.289 175.194 320.046 173.661 320.614 171.027L325.721 147.336C326.388 144.243 330.501 143.568 332.121 146.287V146.287C333.581 148.736 337.204 148.491 338.32 145.868L341.042 139.476C342.211 136.729 345.919 136.286 347.702 138.68V138.68C349.485 141.074 353.193 140.631 354.362 137.884L356.418 133.057C357.828 129.743 362.387 129.394 364.286 132.453V132.453C365.963 135.154 369.85 135.274 371.69 132.681L375.382 127.478C375.701 127.027 376.073 126.617 376.489 126.254L379.999 123.191C382.159 121.306 385.438 121.525 387.328 123.682V123.682C389.63 126.308 393.814 125.964 395.656 122.997L400 116" stroke="white"/>
<rect x="224" y="165" width="5.65685" height="5.65685" transform="rotate(45 224 165)" fill="#D846A5"/>
<rect x="192" y="139" width="64" height="30" rx="8" fill="#D846A5"/>
<path d="M205.12 160.14H206.044V159.12C207.652 158.94 208.684 157.932 208.684 156.468C208.684 155.196 207.988 154.452 206.452 154.116L206.044 154.02V151.44C206.668 151.572 207.028 151.992 207.052 152.64H208.54C208.492 151.2 207.556 150.252 206.044 150.096V149.076H205.12V150.096C203.524 150.264 202.468 151.272 202.468 152.676C202.468 153.996 203.224 154.836 204.736 155.16L205.12 155.244V157.8C204.34 157.704 203.896 157.272 203.884 156.588H202.348C202.384 158.052 203.452 159.024 205.12 159.144V160.14ZM205.072 153.804C204.304 153.636 203.968 153.264 203.968 152.628C203.968 151.98 204.4 151.548 205.12 151.428V153.816L205.072 153.804ZM206.128 155.46C206.848 155.616 207.196 155.988 207.196 156.6C207.196 157.212 206.764 157.632 206.044 157.776V155.436L206.128 155.46ZM215.738 158.988V157.56H212.09L213.674 156.204C215.006 155.064 215.678 154.14 215.678 152.916C215.678 151.14 214.514 150.072 212.642 150.072C210.782 150.072 209.558 151.32 209.546 153.24H211.07C211.082 152.112 211.682 151.44 212.642 151.44C213.566 151.44 214.106 152.004 214.106 153C214.106 153.84 213.71 154.416 212.522 155.424L209.654 157.848V159L215.738 158.988ZM218.578 151.608V159H220.054V150.228H216.658V151.608H218.578ZM221.547 154.632C221.547 157.344 222.927 159.156 225.255 159.156C227.583 159.156 228.975 157.344 228.975 154.632C228.975 151.908 227.499 150.06 225.255 150.06C223.011 150.06 221.547 151.908 221.547 154.632ZM223.059 154.632C223.059 152.556 223.875 151.416 225.255 151.416C226.647 151.416 227.463 152.556 227.463 154.632C227.463 156.66 226.647 157.8 225.255 157.8C223.875 157.8 223.059 156.66 223.059 154.632ZM230.799 159.144C231.327 159.144 231.771 158.712 231.771 158.196C231.771 157.668 231.327 157.236 230.799 157.236C230.271 157.236 229.827 157.668 229.827 158.196C229.827 158.712 230.271 159.144 230.799 159.144ZM233.951 152.808C232.968 154.14 232.62 154.908 232.62 155.964C232.62 157.764 234.036 159.156 235.932 159.156C237.804 159.156 239.196 157.848 239.196 155.976C239.196 154.2 237.972 152.928 236.16 152.928C235.944 152.928 235.715 152.964 235.5 153.024L237.6 150.228H235.848L233.951 152.808ZM234.192 155.976C234.192 154.92 234.888 154.188 235.932 154.188C236.94 154.188 237.648 154.92 237.648 155.976C237.648 157.044 236.928 157.788 235.932 157.788C234.9 157.788 234.192 157.044 234.192 155.976ZM239.08 150.228V151.644H243.844L240.604 159H242.2L245.38 151.644V150.228H239.08Z" fill="white"/>
<path d="M294.724 43H300.052C302.77 43 304.336 41.686 304.336 39.436C304.336 37.906 303.634 36.862 302.248 36.412C303.49 35.89 304.138 34.846 304.138 33.388C304.138 31.192 302.554 29.842 299.962 29.842H294.724V43ZM299.764 31.876C301.06 31.876 301.78 32.488 301.78 33.622C301.78 34.792 301.078 35.458 299.818 35.458H297.028V31.876H299.764ZM299.962 37.402C301.24 37.402 301.978 38.032 301.978 39.148C301.978 40.336 301.258 40.966 299.962 40.966H297.028V37.402H299.962ZM309.553 29.842H307.249V43H315.061V40.876H309.553V29.842ZM320.038 29.842H317.734V43H320.038V40.192L322.216 37.402L325.474 43H328.138L323.728 35.458L328.084 29.842H325.366L320.038 36.754V29.842ZM341.517 38.464C344.145 38.464 345.873 36.682 345.873 34.144C345.873 31.57 344.163 29.842 341.517 29.842H336.315V43H338.619V38.464H341.517ZM341.067 31.894C342.597 31.894 343.461 32.686 343.461 34.126C343.461 35.566 342.615 36.412 341.031 36.412H338.619V31.894H341.067ZM353.867 34.072C353.507 33.982 353.201 33.946 352.895 33.946C351.707 33.946 350.861 34.54 350.483 35.422L350.357 34.126H348.287V43H350.483V38.68C350.483 36.952 351.473 36.106 353.057 36.106H353.867V34.072ZM357.251 32.326C357.971 32.326 358.565 31.732 358.565 30.994C358.565 30.256 357.971 29.68 357.251 29.68C356.495 29.68 355.901 30.256 355.901 30.994C355.901 31.732 356.495 32.326 357.251 32.326ZM356.153 43H358.349V34.108H356.153V43ZM360.896 38.536C360.896 41.362 362.66 43.234 365.36 43.234C367.682 43.234 369.41 41.812 369.68 39.742H367.466C367.232 40.714 366.458 41.254 365.36 41.254C363.956 41.254 363.092 40.21 363.092 38.536C363.092 36.862 364.028 35.8 365.432 35.8C366.476 35.8 367.214 36.322 367.466 37.33H369.662C369.428 35.188 367.772 33.838 365.342 33.838C362.714 33.838 360.896 35.782 360.896 38.536ZM376.092 43.234C378.414 43.234 380.034 42.064 380.412 40.12H378.378C378.126 40.966 377.334 41.434 376.128 41.434C374.67 41.434 373.842 40.642 373.68 39.076L380.376 39.058V38.392C380.376 35.62 378.684 33.838 376.02 33.838C373.41 33.838 371.592 35.764 371.592 38.554C371.592 41.308 373.446 43.234 376.092 43.234ZM376.038 35.638C377.352 35.638 378.198 36.448 378.198 37.672H373.734C373.95 36.34 374.742 35.638 376.038 35.638Z" fill="white"/>
<path d="M71.458 43H76.786C79.504 43 81.07 41.686 81.07 39.436C81.07 37.906 80.368 36.862 78.982 36.412C80.224 35.89 80.872 34.846 80.872 33.388C80.872 31.192 79.288 29.842 76.696 29.842H71.458V43ZM76.498 31.876C77.794 31.876 78.514 32.488 78.514 33.622C78.514 34.792 77.812 35.458 76.552 35.458H73.762V31.876H76.498ZM76.696 37.402C77.974 37.402 78.712 38.032 78.712 39.148C78.712 40.336 77.992 40.966 76.696 40.966H73.762V37.402H76.696ZM85.8726 43V29.608H83.6946V43H85.8726ZM88.4542 38.536C88.4542 41.308 90.4522 43.216 93.2062 43.216C95.9602 43.216 97.9582 41.308 97.9582 38.536C97.9582 35.764 95.9602 33.856 93.2062 33.856C90.4522 33.856 88.4542 35.764 88.4542 38.536ZM90.6502 38.536C90.6502 36.916 91.6942 35.818 93.2062 35.818C94.7182 35.818 95.7622 36.916 95.7622 38.536C95.7622 40.156 94.7182 41.254 93.2062 41.254C91.6942 41.254 90.6502 40.156 90.6502 38.536ZM102.713 43V40.606L104.009 39.256L106.331 43H108.851L105.539 37.636L108.923 34.108H106.169L102.713 37.834V29.608H100.535V43H102.713ZM110.21 47.122C110.696 47.248 111.236 47.32 111.848 47.32C113.306 47.32 114.242 46.636 114.908 44.98L119.264 34.108H116.996L114.584 40.588L112.298 34.108H109.976L113.558 43.378L113.306 44.044C112.928 45.088 112.388 45.286 111.524 45.286H110.21V47.122Z" fill="white"/>
<path d="M39 33.0207C41.1658 31.7703 43.8342 31.7703 46 33.0207L51.5574 36.2293C53.7232 37.4797 55.0574 39.7906 55.0574 42.2915V48.7085C55.0574 51.2094 53.7232 53.5203 51.5574 54.7707L46 57.9793C43.8342 59.2297 41.1658 59.2297 39 57.9793L33.4426 54.7707C31.2768 53.5203 29.9426 51.2094 29.9426 48.7085V42.2915C29.9426 39.7906 31.2768 37.4797 33.4426 36.2293L39 33.0207Z" fill="url(#paint0_angular_192_56)"/>
<path opacity="0.6" d="M75.11 60.388C77.084 60.388 78.372 59.016 78.372 57.126C78.372 55.18 77.098 53.878 75.11 53.878H71.176V64H72.548V60.388H75.11ZM74.872 55.11C76.16 55.11 76.93 55.838 76.93 57.112C76.93 58.358 76.174 59.156 74.816 59.156H72.548V55.11H74.872ZM84.222 57.098C83.956 57.042 83.76 57.014 83.522 57.014C82.584 57.014 81.898 57.49 81.618 58.204L81.534 57.168H80.302V64H81.618V60.374C81.618 59.058 82.388 58.302 83.634 58.302H84.222V57.098ZM86.7003 55.53C87.1763 55.53 87.5683 55.138 87.5683 54.662C87.5683 54.172 87.1763 53.794 86.7003 53.794C86.2243 53.794 85.8323 54.172 85.8323 54.662C85.8323 55.138 86.2243 55.53 86.7003 55.53ZM86.0563 64H87.3723V57.154H86.0563V64ZM89.4349 60.584C89.4349 62.74 90.7649 64.168 92.7809 64.168C94.4329 64.168 95.7069 63.174 95.9729 61.69H94.6569C94.4189 62.502 93.7189 62.992 92.7809 62.992C91.5349 62.992 90.7369 62.04 90.7369 60.57C90.7369 59.086 91.5909 58.134 92.8369 58.134C93.7189 58.134 94.4189 58.596 94.6429 59.464H95.9589C95.7209 57.938 94.5169 56.958 92.7949 56.958C90.7929 56.958 89.4349 58.442 89.4349 60.584ZM100.915 64.168C102.609 64.168 103.757 63.342 104.093 61.872H102.861C102.637 62.656 101.965 63.076 100.943 63.076C99.6414 63.076 98.8854 62.278 98.7874 60.836L104.079 60.822V60.332C104.079 58.302 102.805 56.958 100.859 56.958C98.8714 56.958 97.5134 58.442 97.5134 60.584C97.5134 62.712 98.8994 64.168 100.915 64.168ZM100.859 58.064C102.021 58.064 102.763 58.82 102.763 59.954H98.8154C98.9834 58.75 99.7114 58.064 100.859 58.064ZM110.129 60.584C110.129 62.74 111.459 64.168 113.475 64.168C115.127 64.168 116.401 63.174 116.667 61.69H115.351C115.113 62.502 114.413 62.992 113.475 62.992C112.229 62.992 111.431 62.04 111.431 60.57C111.431 59.086 112.285 58.134 113.531 58.134C114.413 58.134 115.113 58.596 115.337 59.464H116.653C116.415 57.938 115.211 56.958 113.489 56.958C111.487 56.958 110.129 58.442 110.129 60.584ZM119.972 63.986V60.262C119.972 59.086 120.658 58.162 121.932 58.162C122.912 58.162 123.57 58.722 123.57 60.108V64H124.886V59.814C124.886 58.064 124.046 56.958 122.296 56.958C121.232 56.958 120.406 57.462 119.972 58.204V53.696H118.656V63.986H119.972ZM129.311 64.168C130.417 64.168 131.355 63.678 131.705 62.894L131.845 64H132.965V59.702C132.965 57.854 131.817 56.958 130.123 56.958C128.359 56.958 127.183 57.896 127.183 59.324H128.331C128.331 58.498 128.961 58.008 130.067 58.008C130.991 58.008 131.677 58.414 131.677 59.562V59.758L129.521 59.926C127.911 60.052 126.973 60.836 126.973 62.096C126.973 63.342 127.841 64.168 129.311 64.168ZM129.689 63.146C128.835 63.146 128.303 62.782 128.303 62.054C128.303 61.382 128.779 60.934 129.941 60.822L131.691 60.682V61.046C131.691 62.334 130.935 63.146 129.689 63.146ZM139.307 57.098C139.041 57.042 138.845 57.014 138.607 57.014C137.669 57.014 136.983 57.49 136.703 58.204L136.619 57.168H135.387V64H136.703V60.374C136.703 59.058 137.473 58.302 138.719 58.302H139.307V57.098ZM143.347 64V58.26H144.691V57.154H143.347V55.012H142.031V57.154H140.687V58.26H142.031V64H143.347Z" fill="#B7BAC7"/>
<path opacity="0.6" d="M328.061 65.358H328.957V64.14C330.805 63.972 331.995 62.852 331.995 61.186C331.995 59.786 331.183 58.904 329.503 58.526L328.957 58.4V54.928C329.867 55.054 330.413 55.628 330.469 56.524H331.827C331.729 54.9 330.651 53.864 328.957 53.71V52.506H328.061V53.724C326.241 53.878 325.051 55.012 325.051 56.608C325.051 58.05 325.905 58.974 327.557 59.352L328.061 59.464V62.95C326.997 62.838 326.339 62.25 326.311 61.354H324.911C324.995 62.992 326.213 64.042 328.061 64.154V65.358ZM327.837 58.134C326.857 57.896 326.395 57.378 326.395 56.566C326.395 55.67 327.025 55.068 328.061 54.928V58.19L327.837 58.134ZM329.223 59.744C330.189 59.968 330.651 60.486 330.651 61.298C330.651 62.18 330.007 62.782 328.957 62.922V59.688L329.223 59.744ZM335.117 57.084C334.081 58.498 333.717 59.338 333.717 60.542C333.717 62.586 335.341 64.168 337.441 64.168C339.527 64.168 341.123 62.656 341.123 60.542C341.123 58.54 339.709 57.028 337.609 57.028C337.259 57.028 336.895 57.098 336.545 57.238L339.079 53.878H337.483L335.117 57.084ZM335.117 60.556C335.117 59.17 336.069 58.19 337.441 58.19C338.785 58.19 339.737 59.17 339.737 60.556C339.737 61.942 338.785 62.936 337.441 62.936C336.069 62.936 335.117 61.942 335.117 60.556ZM349.586 63.986V62.712H344.91L347.01 60.892C348.802 59.338 349.516 58.316 349.516 56.874C349.516 54.928 348.214 53.696 346.184 53.696C344.126 53.696 342.754 55.11 342.712 57.28H344.084C344.112 55.838 344.924 54.928 346.17 54.928C347.388 54.928 348.116 55.684 348.116 56.958C348.116 58.036 347.654 58.722 346.016 60.136L342.754 62.95V64L349.586 63.986ZM354.401 58.764C356.011 58.764 356.851 59.576 356.851 60.794C356.851 62.096 355.997 62.936 354.681 62.936C353.407 62.936 352.595 62.166 352.595 60.85H351.237C351.237 62.95 352.665 64.168 354.653 64.168C356.711 64.168 358.251 62.866 358.251 60.822C358.251 59.002 356.949 57.84 355.227 57.63L357.999 54.984V53.878H351.713V55.096H356.263L353.393 57.854V58.764H354.401ZM361.074 64.168C361.606 64.168 362.068 63.72 362.068 63.188C362.068 62.642 361.606 62.194 361.074 62.194C360.528 62.194 360.066 62.642 360.066 63.188C360.066 63.72 360.528 64.168 361.074 64.168ZM371.611 61.956V60.738H370.407V53.878H368.629L363.855 60.738V61.956H369.091V64H370.407V61.956H371.611ZM365.339 60.738L369.091 55.334V60.738H365.339ZM376.817 64.168C379.001 64.168 380.499 62.698 380.499 60.598C380.499 58.652 379.169 57.21 377.111 57.21C376.355 57.21 375.683 57.42 375.151 57.826L375.823 55.138H379.897V53.878H374.829L373.597 59.072L374.759 59.366C375.221 58.792 376.005 58.386 376.859 58.386C378.273 58.386 379.099 59.352 379.099 60.654C379.099 62.026 378.217 62.936 376.845 62.936C375.557 62.936 374.759 62.138 374.759 60.836H373.401C373.401 62.852 374.745 64.168 376.817 64.168Z" fill="#B7BAC7"/>
<defs>
<radialGradient id="paint0_angular_192_56" cx="0" cy="0" r="1" gradientUnits="userSpaceOnUse" gradientTransform="translate(42.5 45.5) rotate(90) scale(14.5)">
<stop stop-color="#4D0EAE"/>
<stop offset="1" stop-color="#D846A5"/>
</radialGradient>
</defs>
</svg>
