<svg width="24" height="24" viewBox="0 0 24 24" fill="none" xmlns="http://www.w3.org/2000/svg">
<path fill-rule="evenodd" clip-rule="evenodd" d="M12.0001 1.90735e-06C5.3735 1.90735e-06 0 5.50832 0 12.3037C0 17.7399 3.43839 22.3519 8.2064 23.9789C8.80613 24.0928 9.0263 23.712 9.0263 23.387C9.0263 23.0936 9.01518 22.1243 9.01001 21.0962C5.67157 21.8405 4.96712 19.6445 4.96712 19.6445C4.42125 18.2224 3.63473 17.8442 3.63473 17.8442C2.54596 17.0806 3.7168 17.0963 3.7168 17.0963C4.92181 17.1829 5.55632 18.3642 5.55632 18.3642C6.62661 20.2452 8.36359 19.7014 9.04836 19.387C9.15607 18.592 9.46706 18.0488 9.81024 17.7417C7.14485 17.4306 4.34295 16.3756 4.34295 11.6611C4.34295 10.3178 4.81172 9.22019 5.57937 8.35854C5.45477 8.04844 5.04403 6.79723 5.69562 5.10245C5.69562 5.10245 6.70331 4.77177 8.9965 6.36365C9.95372 6.09104 10.9803 5.95432 12.0001 5.94963C13.0199 5.95432 14.0473 6.09104 15.0063 6.36365C17.2967 4.77177 18.303 5.10245 18.303 5.10245C18.9562 6.79723 18.5452 8.04844 18.4206 8.35854C19.1901 9.22019 19.6557 10.3178 19.6557 11.6611C19.6557 16.3868 16.8484 17.4274 14.1762 17.732C14.6067 18.1138 14.9902 18.8626 14.9902 20.0105C14.9902 21.6565 14.9763 22.9815 14.9763 23.387C14.9763 23.7144 15.1923 24.098 15.8006 23.9772C20.566 22.3485 24 17.7381 24 12.3037C24 5.50832 18.6273 1.90735e-06 12.0001 1.90735e-06Z" fill="white"/>
</svg>
