<svg width="16" height="13" viewBox="0 0 16 13" fill="none" xmlns="http://www.w3.org/2000/svg">
<path d="M15.9168 1.5552C15.818 1.44951 15.6605 1.42327 15.5328 1.4912C15.3779 1.56212 15.2173 1.61993 15.0528 1.664C15.2968 1.35987 15.4814 1.01248 15.5968 0.640004C15.6283 0.510928 15.5768 0.375789 15.4674 0.300451C15.3579 0.225114 15.2133 0.225254 15.104 0.300804C14.594 0.582865 14.0498 0.797972 13.4848 0.940804C12.8779 0.336964 12.0561 -0.00139233 11.2 4.30653e-06C10.5169 0.0150235 9.85176 0.221225 9.27999 0.595204C8.06399 1.28 7.85279 2.8608 7.94239 3.84C5.68806 3.64989 3.60835 2.54995 2.18239 0.793604C2.12405 0.703875 2.02679 0.64694 1.91999 0.640004C1.81328 0.647206 1.71722 0.707241 1.66399 0.800004C1.00468 1.9417 1.05945 3.36052 1.80479 4.448C1.70879 4.384 1.60639 4.3072 1.50399 4.224C1.40852 4.12936 1.26407 4.10447 1.14244 4.16171C1.0208 4.21895 0.947907 4.34612 0.959985 4.48C0.979397 5.67097 1.57603 6.77832 2.55999 7.4496L2.31039 7.3792C2.1917 7.34227 2.06236 7.3774 1.97867 7.46932C1.89499 7.56123 1.87211 7.69329 1.91999 7.808C2.42228 8.94252 3.40616 9.79255 4.60159 10.1248C3.51179 10.7544 2.24926 11.019 0.998385 10.88C0.847166 10.8613 0.703742 10.9518 0.655559 11.0964C0.607375 11.2409 0.667797 11.3994 0.799985 11.4752C2.30486 12.353 4.01785 12.8105 5.75999 12.8V12.8C8.22048 12.7799 10.5529 11.7 12.16 9.8368C13.761 8.12092 14.603 5.83234 14.496 3.488C15.0663 3.05222 15.5577 2.52187 15.9488 1.92C16.0156 1.80372 16.0029 1.65808 15.9168 1.5552Z" fill="#0B0A24"/>
</svg>
