<svg width="54" height="17" viewBox="0 0 54 17" fill="none" xmlns="http://www.w3.org/2000/svg">
<path d="M5.72347 3.80665H8.28823V6.85738H5.72347V12.2029C5.72347 13.3098 6.23645 13.6878 7.23536 13.6878C7.64032 13.6878 8.12625 13.6338 8.28823 13.5798V16.4415C7.96426 16.5765 7.34333 16.7655 6.34442 16.7655C3.86065 16.7655 2.29479 15.2806 2.29479 12.8238V6.88437H0V3.80665H0.647915C1.99779 3.80665 2.61875 2.91574 2.61875 1.78184V0H5.72347V3.80665Z" fill="white"/>
<path d="M21.9755 10.178C21.9755 14.0926 19.0867 16.9544 15.2801 16.9544C11.4734 16.9544 8.58472 14.0926 8.58472 10.178C8.58472 6.23635 11.4734 3.40161 15.2801 3.40161C19.0867 3.40161 21.9755 6.23635 21.9755 10.178ZM18.5198 10.178C18.5198 7.77521 16.9539 6.53333 15.2801 6.53333C13.6062 6.53333 12.0403 7.74822 12.0403 10.178C12.0403 12.5538 13.6062 13.7957 15.2801 13.7957C16.9539 13.7957 18.5198 12.5808 18.5198 10.178Z" fill="white"/>
<path d="M33.6655 3.80688L36.4192 12.0411L38.768 3.80688H42.1967L38.2011 16.5767H34.7454L31.7756 7.85652L28.8329 16.5767H25.3232L21.2466 3.80688H24.8642L27.2131 12.0141L29.9938 3.80688H33.6655Z" fill="white"/>
<path d="M45.7876 9.20608L48.9193 8.74713C49.6483 8.63913 49.8913 8.28817 49.8913 7.82921C49.8913 6.91129 49.1893 6.18236 47.7315 6.18236C46.2196 6.18236 45.4097 7.15427 45.3017 8.26117L42.251 7.61323C42.4669 5.61541 44.3028 3.40161 47.7315 3.40161C51.7811 3.40161 53.2929 5.6964 53.2929 8.26117V14.5246C53.2929 15.1995 53.3739 16.1175 53.4549 16.5494H50.2962C50.2152 16.2254 50.1612 15.5235 50.1612 15.0106C49.5133 16.0095 48.2984 16.9004 46.4086 16.9004C43.6818 16.9004 42.035 15.0646 42.035 13.0667C41.981 10.7989 43.6548 9.53006 45.7876 9.20608ZM49.8913 11.3929V10.8259L47.0025 11.2579C46.1116 11.3929 45.4097 11.8788 45.4097 12.8778C45.4097 13.6337 45.9496 14.3626 47.0565 14.3626C48.5414 14.3626 49.8913 13.6607 49.8913 11.3929Z" fill="white"/>
</svg>
