<svg width="65" height="19" viewBox="0 0 65 19" fill="none" xmlns="http://www.w3.org/2000/svg">
<path d="M13.5096 3.48564H4.02421V5.89294H13.2223V9.23441H4.02421V11.7854H13.6533V15.055H0V0.251953H13.5456V3.48564H13.5096Z" fill="white"/>
<path d="M18.5039 15.0546H14.0846L19.0428 9.52143L13.9409 4.02417H18.6835L21.5221 7.11413L24.2527 4.02417H28.5285L23.7857 9.44957L28.8158 15.0546H24.3606L21.4143 11.8928L18.5039 15.0546Z" fill="white"/>
<path d="M33.1274 4.02417V5.42544C33.5945 4.92242 35.0676 3.80859 37.5467 3.80859H37.7983C42.0021 3.80859 43.3674 6.68298 43.3674 9.30586V9.62922C43.3674 12.0365 41.9661 15.2343 37.7623 15.2343H37.475C34.9599 15.2343 33.5945 14.0845 33.1274 13.6174V18.8273H29.2471V4.02417H33.1274ZM36.3971 6.68298H36.1815C33.846 6.68298 33.1274 8.22796 33.1274 9.48551V9.55737C33.1274 10.779 33.846 12.3599 36.1815 12.3599H36.3971C38.8044 12.3599 39.3792 10.7071 39.3792 9.55737V9.48551C39.3792 8.29982 38.8403 6.68298 36.3971 6.68298Z" fill="white"/>
<path d="M44.9482 15.0546V0H48.8288V15.0546H44.9482Z" fill="white"/>
<path d="M50.3378 9.7371V9.44966C50.3378 7.47352 51.236 3.73682 57.1644 3.73682H57.8113C63.9193 3.73682 64.6379 7.50945 64.6379 9.44966V9.7371C64.6379 11.7132 63.9193 15.3421 57.7753 15.3421H57.1644C51.2719 15.3421 50.3378 11.7132 50.3378 9.7371ZM60.6857 9.48559C60.6857 8.22804 60.0749 6.57527 57.6316 6.57527H57.416C54.865 6.57527 54.362 8.22804 54.362 9.48559C54.362 10.7072 54.865 12.4318 57.416 12.4318H57.6316C60.0389 12.4318 60.6857 10.7072 60.6857 9.48559Z" fill="white"/>
</svg>
