<svg width="67" height="20" viewBox="0 0 67 20" fill="none" xmlns="http://www.w3.org/2000/svg">
<path d="M0.0463558 6.21227H3.15248V8.34483C3.477 7.69579 3.98696 7.13947 4.72872 6.67587C5.47048 6.21227 6.35132 5.98047 7.46396 5.98047C8.113 5.98047 8.76204 6.07319 9.31836 6.30499C9.87468 6.49043 10.3846 6.81495 10.8019 7.23219C11.2191 7.64943 11.5436 8.20575 11.7291 8.85479C11.9609 9.50383 12.0536 10.3383 12.0536 11.2192V19.6567H8.94748V11.451C8.94748 10.431 8.71568 9.68927 8.29844 9.22567C7.8812 8.76207 7.1858 8.53027 6.2586 8.53027C5.37776 8.53027 4.636 8.80843 4.03332 9.31839C3.43064 9.87471 3.10612 10.6628 3.10612 11.7291V19.6567H0V6.21227H0.0463558Z" fill="white"/>
<path d="M20.0732 19.8885C19.0997 19.8885 18.1725 19.7494 17.338 19.4249C16.5035 19.1004 15.8081 18.6368 15.2054 18.0805C14.6028 17.4778 14.1392 16.7824 13.8146 15.9479C13.4901 15.1134 13.3047 14.1399 13.3047 13.1199V12.9345C13.3047 11.9146 13.4901 10.941 13.8146 10.1065C14.1392 9.27206 14.6028 8.5303 15.2054 7.92762C15.8081 7.32494 16.5035 6.86134 17.338 6.53682C18.1725 6.2123 19.0533 6.02686 19.9805 6.02686C20.815 6.02686 21.6031 6.16594 22.3912 6.39774C23.133 6.6759 23.8284 7.04678 24.3847 7.6031C24.9874 8.15942 25.451 8.85482 25.7755 9.6893C26.1464 10.5238 26.2855 11.5437 26.2855 12.7491V13.6299H16.4572C16.5035 14.928 16.828 15.9015 17.4771 16.5969C18.0798 17.2923 19.007 17.6169 20.166 17.6169C21.0932 17.6169 21.8349 17.4314 22.2985 17.0605C22.8085 16.6897 23.0866 16.1797 23.2257 15.5307H26.2391C26.0073 16.9678 25.3583 18.0341 24.292 18.7759C23.2257 19.5176 21.7886 19.8885 20.0732 19.8885ZM23.2257 11.5437C23.133 10.3847 22.8085 9.55022 22.2522 8.9939C21.6959 8.48394 20.9541 8.20578 19.9805 8.20578C19.0533 8.20578 18.2652 8.48394 17.6625 9.08662C17.0598 9.6893 16.689 10.4774 16.5499 11.5437H23.2257Z" fill="white"/>
<path d="M32.0813 19.8884C31.4323 19.8884 30.7832 19.7956 30.2269 19.6102C29.6706 19.4248 29.1606 19.1002 28.7434 18.683C28.3262 18.2658 28.0016 17.7558 27.7698 17.1068C27.538 16.4577 27.4453 15.716 27.4453 14.8351V6.21216H30.5514V14.4642C30.5514 15.4842 30.7832 16.2259 31.2005 16.6895C31.6177 17.1531 32.3131 17.3849 33.194 17.3849C33.6112 17.3849 33.9821 17.3386 34.3993 17.1995C34.7702 17.0604 35.0947 16.875 35.4192 16.5968C35.7438 16.3186 35.9292 15.9941 36.1146 15.5769C36.3001 15.1596 36.3928 14.696 36.3928 14.1861V6.21216H39.4989V19.6102H36.3464V17.524C36.0219 18.173 35.4656 18.7294 34.7702 19.193C34.0748 19.6566 33.194 19.8884 32.0813 19.8884Z" fill="white"/>
<path d="M41.6776 6.21227H44.7837V8.71571C45.201 7.88123 45.7573 7.18583 46.4527 6.72223C47.1481 6.25863 48.0289 6.02683 49.1416 5.98047V8.90115C48.4462 8.90115 47.8435 8.94751 47.2872 9.08659C46.7308 9.22567 46.3136 9.41111 45.8964 9.73563C45.5255 10.0138 45.2473 10.3847 45.0155 10.8946C44.8301 11.3582 44.7374 11.9609 44.7374 12.6563V19.6103H41.6312V6.21227H41.6776Z" fill="white"/>
<path d="M53.6849 19.8884C53.0822 19.8884 52.4795 19.7957 51.9232 19.6566C51.3669 19.5176 50.9033 19.2858 50.486 18.9612C50.0688 18.6367 49.7443 18.2195 49.5125 17.7095C49.2807 17.1996 49.1416 16.5969 49.1416 15.9015C49.1416 15.1134 49.327 14.4643 49.6979 13.908C50.0688 13.3517 50.5324 12.9344 51.1814 12.6099C51.8305 12.2854 52.5259 12.0536 53.3604 11.8682C54.1948 11.7291 55.0757 11.6364 56.0492 11.6364H57.7182V10.941C57.7182 10.0138 57.5328 9.36472 57.2082 8.90112C56.8374 8.43752 56.2347 8.25208 55.3075 8.25208C54.473 8.25208 53.8703 8.43752 53.4531 8.8084C53.0358 9.17928 52.804 9.68924 52.7113 10.3846H49.6979C49.7443 9.59652 49.9761 8.94748 50.3006 8.39116C50.6251 7.83484 51.0424 7.37124 51.5523 7.00036C52.0623 6.62948 52.665 6.39768 53.314 6.21224C53.963 6.0268 54.7048 5.93408 55.4466 5.93408C56.1883 5.93408 56.8837 6.0268 57.5328 6.16588C58.1818 6.35132 58.7381 6.58312 59.2481 7.00036C59.758 7.4176 60.1289 7.8812 60.4071 8.53024C60.6852 9.13292 60.8243 9.92104 60.8243 10.8482V19.6566H57.7646V18.034C57.301 18.6367 56.791 19.054 56.142 19.4248C55.5393 19.703 54.7048 19.8884 53.6849 19.8884ZM54.4266 17.6632C55.4002 17.6632 56.1883 17.4314 56.791 16.9678C57.3937 16.5042 57.7182 15.8088 57.7182 14.9743V13.6298H56.142C54.983 13.6298 54.0094 13.7689 53.314 14.0934C52.6186 14.418 52.2477 14.9743 52.2477 15.8088C52.2477 16.3651 52.4332 16.8287 52.7577 17.1532C53.1286 17.4777 53.6849 17.6632 54.4266 17.6632Z" fill="white"/>
<path d="M63.0496 0H66.1557V19.6103H63.0496V0Z" fill="white"/>
</svg>
