<svg width="82" height="13" viewBox="0 0 82 13" fill="none" xmlns="http://www.w3.org/2000/svg">
<path d="M4.01775 0H8.70512L12.7228 12.5953H8.89643L8.22681 10.2357H4.04963L3.38001 12.5953H0L4.01775 0ZM4.71926 7.78038H7.4934L6.12227 2.93359L4.71926 7.78038Z" fill="white"/>
<path d="M19.2277 0H22.8627V9.82114H27.6139V12.5953H19.2277V0Z" fill="white"/>
<path d="M34.4375 0H39.2205C40.9424 0 42.2179 0.382642 43.047 1.11604C43.876 1.84943 44.2906 2.9017 44.2906 4.24095V4.27283C44.2906 5.61208 43.876 6.60057 43.0151 7.30208C42.1541 8.00359 40.9424 8.35435 39.38 8.35435H38.0088V12.5953H34.4056V0H34.4375ZM39.093 5.89906C39.6989 5.89906 40.1453 5.77151 40.4323 5.51642C40.7192 5.26132 40.8787 4.8468 40.8787 4.33661V4.27283C40.8787 3.73076 40.7192 3.34812 40.4323 3.12491C40.1134 2.9017 39.6988 2.77415 39.1249 2.77415H38.0726V5.96283H39.093V5.89906Z" fill="white"/>
<path d="M51.0187 0H54.6538V4.81491H58.7991V0H62.4023V12.5953H58.7991V7.65284H54.6538V12.6272H51.0187V0Z" fill="white"/>
<path d="M72.9569 0H77.6443L81.662 12.5953H77.8356L77.166 10.2357H72.9888L72.3192 12.5953H68.9392L72.9569 0ZM73.6903 7.78038H76.4645L75.0933 2.93359L73.6903 7.78038Z" fill="white"/>
</svg>
