<svg width="12" height="11" viewBox="0 0 12 11" fill="none" xmlns="http://www.w3.org/2000/svg">
<path d="M11.2971 1.81748C11.224 1.73932 11.1076 1.71992 11.0132 1.77015C10.8986 1.8226 10.7799 1.86534 10.6582 1.89793C10.8387 1.67304 10.9752 1.41616 11.0605 1.14073C11.0838 1.04529 11.0457 0.945358 10.9648 0.88965C10.8839 0.833941 10.7769 0.834045 10.6961 0.889911C10.319 1.09848 9.91656 1.25754 9.49877 1.36316C9.04997 0.916649 8.44235 0.666451 7.80927 0.667484C7.30418 0.67859 6.81232 0.831066 6.38952 1.10761C5.49035 1.61398 5.33417 2.78291 5.40043 3.50698C3.73346 3.3664 2.19562 2.55305 1.14119 1.25431C1.09805 1.18796 1.02613 1.14586 0.947154 1.14073C0.868247 1.14606 0.797218 1.19045 0.757854 1.25905C0.270333 2.10328 0.310826 3.15242 0.861969 3.95657C0.790981 3.90924 0.715262 3.85245 0.639542 3.79093C0.568948 3.72094 0.462138 3.70254 0.372194 3.74487C0.282249 3.78719 0.228349 3.88122 0.23728 3.98023C0.251634 4.86089 0.692815 5.67973 1.4204 6.17611L1.23584 6.12405C1.14807 6.09673 1.05243 6.12272 0.990552 6.19068C0.928672 6.25865 0.91175 6.3563 0.947154 6.44112C1.31858 7.28005 2.04611 7.9086 2.93007 8.15429C2.12422 8.61981 1.19063 8.81548 0.265675 8.71272C0.153855 8.6989 0.0478005 8.76584 0.012171 8.87273C-0.0234585 8.97962 0.0212204 9.09681 0.118968 9.15284C1.23175 9.80191 2.49843 10.1402 3.78665 10.1325C5.60607 10.1176 7.33075 9.31908 8.51914 7.94132C9.70298 6.67251 10.3256 4.98021 10.2465 3.24669C10.6682 2.92445 11.0316 2.53228 11.3208 2.08723C11.3702 2.00124 11.3608 1.89355 11.2971 1.81748Z" fill="#130C12"/>
</svg>
